HIERARCHY
ROOT SpineBase
{
  OFFSET 0.000000 0.000000 0.000000
  CHANNELS 6 Xposition Yposition Zposition Zrotation Xrotation Yrotation
  JOINT SpineMid
  {
    OFFSET 0.000000 28.431499 0.000000
    CHANNELS 3 Zrotation Xrotation Yrotation
    JOINT SpineShoulder
    {
      OFFSET -0.385302 20.988752 -0.635677
      CHANNELS 3 Zrotation Xrotation Yrotation
      JOINT Neck
      {
        OFFSET -0.240249 6.925810 -0.491026
        CHANNELS 3 Zrotation Xrotation Yrotation
        JOINT Head
        {
          OFFSET -2.303370 12.266444 2.249699
          CHANNELS 3 Zrotation Xrotation Yrotation
          End Site
          {
            OFFSET 0 0 0
          }
        }
      }
      JOINT ShoulderLeft
      {
        OFFSET -10.892353 -4.448009 12.006475
        CHANNELS 3 Zrotation Xrotation Yrotation
        JOINT ElbowLeft
        {
          OFFSET -2.227118 -31.252967 5.070549
          CHANNELS 3 Zrotation Xrotation Yrotation
          JOINT WristLeft
          {
            OFFSET -4.959089 -23.947453 -1.129036
            CHANNELS 3 Zrotation Xrotation Yrotation
            JOINT HandLeft
            {
              OFFSET 0.174424 -6.674996 -2.900081
              CHANNELS 3 Zrotation Xrotation Yrotation
              JOINT HandTipLeft
              {
                OFFSET -0.077724 -6.126079 1.390308
                CHANNELS 3 Zrotation Xrotation Yrotation
                End Site
                {
                  OFFSET 0 0 0
                }
              }
              JOINT ThumbLeft
              {
                OFFSET -0.336663 -0.723134 -2.909482
                CHANNELS 3 Zrotation Xrotation Yrotation
                End Site
                {
                  OFFSET 0 0 0
                }
              }
            }
          }
        }
      }
      JOINT ShoulderRight
      {
        OFFSET 6.303762 -4.936990 -11.346357
        CHANNELS 3 Zrotation Xrotation Yrotation
        JOINT ElbowRight
        {
          OFFSET 7.152246 -23.727434 -4.220313
          CHANNELS 3 Zrotation Xrotation Yrotation
          JOINT WristRight
          {
            OFFSET 0.879008 -28.894952 -7.269851
            CHANNELS 3 Zrotation Xrotation Yrotation
            JOINT HandRight
            {
              OFFSET -0.905121 -5.136561 -2.806599
              CHANNELS 3 Zrotation Xrotation Yrotation
              JOINT HandTipRight
              {
                OFFSET -0.220990 -6.181665 -1.024697
                CHANNELS 3 Zrotation Xrotation Yrotation
                End Site
                {
                  OFFSET 0 0 0
                }
              }
              JOINT ThumbRight
              {
                OFFSET 1.445109 -1.665961 -3.064804
                CHANNELS 3 Zrotation Xrotation Yrotation
                End Site
                {
                  OFFSET 0 0 0
                }
              }
            }
          }
        }
      }
    }
  }
  JOINT HipLeft
  {
    OFFSET -4.626565 -0.400466 0.855364
    CHANNELS 3 Zrotation Xrotation Yrotation
    JOINT KneeLeft
    {
      OFFSET -6.934974 -44.858711 2.185379
      CHANNELS 3 Zrotation Xrotation Yrotation
      JOINT AnkleLeft
      {
        OFFSET 3.032139 -38.685108 4.698504
        CHANNELS 3 Zrotation Xrotation Yrotation
        JOINT FootLeft
        {
          OFFSET -8.681172 -4.046308 -9.308422
          CHANNELS 3 Zrotation Xrotation Yrotation
          End Site
          {
            OFFSET 0 0 0
          }
        }
      }
    }
  }
  JOINT HipRight
  {
    OFFSET 2.677071 1.164780 -7.383209
    CHANNELS 3 Zrotation Xrotation Yrotation
    JOINT KneeRight
    {
      OFFSET 6.482019 -43.442824 -4.083029
      CHANNELS 3 Zrotation Xrotation Yrotation
      JOINT AnkleRight
      {
        OFFSET 7.569595 -38.552668 8.848290
        CHANNELS 3 Zrotation Xrotation Yrotation
        JOINT FootRight
        {
          OFFSET -7.445696 -4.924875 -8.319264
          CHANNELS 3 Zrotation Xrotation Yrotation
          End Site
          {
            OFFSET 0 0 0
          }
        }
      }
    }
  }
}
MOTION
Frames: 16
Frame Time: 0.033333
107.272791 89.166832 350.421953 -0.000000 0.000000 48.442460 0.000000 -0.000000 -48.442460 -0.000000 0.000000 0.000000 -0.000000 0.000000 0.000000 0.000000 0.000000 0.000000 -0.000000 0.000000 0.000000 -0.000000 0.000000 0.000000 -0.000000 0.000000 0.000000 -0.000000 0.000000 0.000000 0.000000 0.000000 0.000000 0.000000 0.000000 0.000000 -0.000000 0.000000 0.000000 -0.000000 0.000000 0.000000 -0.000000 0.000000 0.000000 -0.000000 0.000000 0.000000 0.000000 0.000000 0.000000 0.000000 0.000000 0.000000 0.000000 -0.000000 -48.442460 -0.000000 0.000000 0.000000 -0.000000 0.000000 0.000000 0.000000 0.000000 0.000000 0.000000 -0.000000 -48.442460 -0.000000 0.000000 0.000000 -0.000000 0.000000 0.000000 0.000000 0.000000 0.000000
107.187339 89.164730 350.539470 0.005320 -0.123521 48.513325 0.089006 0.085811 -48.513386 -0.000000 0.000000 0.000000 -0.000000 0.000000 0.000000 0.000000 0.000000 0.000000 -0.000000 0.000000 0.000000 2.067509 1.526306 -0.442492 -5.272501 -1.261209 1.712296 0.736458 6.983268 -1.952304 0.000000 0.000000 0.000000 0.000000 0.000000 0.000000 -0.000000 0.000000 0.000000 -0.221696 0.877377 0.084009 -1.439681 -3.885018 1.301441 0.927943 7.053912 -1.421413 0.000000 0.000000 0.000000 0.000000 0.000000 0.000000 0.089006 0.085811 -48.513386 -0.000000 0.000000 0.000000 -0.000000 0.000000 0.000000 0.000000 0.000000 0.000000 0.089006 0.085811 -48.513386 -0.000000 0.000000 0.000000 -1.672088 1.284781 0.865508 0.000000 0.000000 0.000000
107.110739 89.162478 350.642155 0.006630 -0.233742 48.585966 0.170910 0.159591 -48.586191 -0.000000 0.000000 0.000000 -0.000000 0.000000 0.000000 0.000000 0.000000 0.000000 -0.268529 -1.285099 0.044914 4.048973 3.879594 -0.942550 -10.145257 -2.257621 3.152758 2.254451 13.128465 -3.586444 0.000000 0.000000 0.000000 0.000000 0.000000 0.000000 -0.000000 0.000000 0.000000 -0.416886 1.651654 0.160580 -2.332113 -6.862328 2.103478 1.599158 12.319264 -2.366940 0.000000 0.000000 0.000000 0.000000 0.000000 0.000000 0.170910 0.159591 -48.586191 -0.000000 0.000000 0.000000 -0.000000 0.000000 0.000000 0.000000 0.000000 0.000000 0.170910 0.159591 -48.586191 -0.000000 0.000000 0.000000 -2.774828 2.107351 1.454402 0.000000 0.000000 0.000000
107.042989 89.160075 350.730010 0.003924 -0.330647 48.660271 0.245661 0.221346 -48.660735 -0.000000 0.000000 0.000000 -0.000000 0.000000 0.000000 0.000000 0.000000 0.000000 -0.292434 -1.519198 0.056811 5.423753 4.746385 -1.265995 -14.497582 -2.976878 4.366248 4.393417 18.099370 -4.990472 0.000000 0.000000 0.000000 0.000000 0.000000 0.000000 -0.000000 0.000000 0.000000 -0.581285 2.307954 0.227063 -2.826194 -9.081567 2.568300 1.965723 16.107855 -2.942946 0.000000 0.000000 0.000000 0.000000 0.000000 0.000000 0.245661 0.221346 -48.660735 -0.000000 0.000000 0.000000 -0.000000 0.000000 0.000000 0.000000 0.000000 0.000000 0.245661 0.221346 -48.660735 -0.000000 0.000000 0.000000 -3.359322 2.532545 1.775921 0.000000 0.000000 0.000000
106.984089 89.157522 350.803035 -0.002799 -0.414221 48.736143 0.313211 0.271085 -48.736894 -0.000000 0.000000 0.000000 -0.000000 0.000000 0.000000 0.000000 0.000000 0.000000 -0.243134 -1.481774 0.062866 6.364887 4.919639 -1.426374 -18.202617 -3.405862 5.390327 6.927175 21.771268 -6.214789 0.000000 0.000000 0.000000 0.000000 0.000000 0.000000 -0.333816 -0.776498 -0.177323 -0.388762 3.608699 0.463810 -3.009654 -10.648468 2.793536 2.011251 18.645180 -3.208761 0.000000 0.000000 0.000000 0.000000 0.000000 0.000000 0.313211 0.271085 -48.736894 -0.000000 0.000000 0.000000 -0.000000 0.000000 0.000000 0.000000 0.000000 0.000000 0.313211 0.271085 -48.736894 -0.000000 0.000000 0.000000 -3.452892 2.593749 1.836562 0.000000 0.000000 0.000000
106.934040 89.154818 350.861228 -0.013544 -0.484450 48.813499 0.373505 0.308821 -48.814563 -0.000000 0.000000 0.000000 -0.000000 0.000000 0.000000 0.000000 0.000000 0.000000 -0.120703 -1.173013 0.062665 6.873996 4.407395 -1.398618 -21.143583 -3.525359 6.253636 9.612587 24.157726 -7.262719 0.000000 0.000000 0.000000 0.000000 0.000000 0.000000 -0.364363 -0.821195 -0.185758 -0.452410 4.037412 0.512896 -2.932851 -11.633611 2.836281 1.734374 20.080371 -3.201387 0.000000 0.000000 0.000000 0.000000 0.000000 0.000000 0.373505 0.308821 -48.814563 -0.000000 0.000000 0.000000 -0.000000 0.000000 0.000000 0.000000 0.000000 0.000000 0.373505 0.308821 -48.814563 -0.000000 0.000000 0.000000 -3.060053 2.296299 1.637869 0.000000 0.000000 0.000000
106.886739 89.150302 350.897060 -0.046845 -0.542466 48.872306 0.439427 0.321512 -48.873761 -0.000000 0.000000 0.000000 -0.000000 0.000000 0.000000 0.000000 0.000000 0.000000 -0.000000 0.000000 0.000000 6.913492 2.141863 -0.909890 -23.840984 -2.481369 7.377565 13.703784 25.231738 -8.393623 0.000000 0.000000 0.000000 0.000000 0.000000 0.000000 -0.372720 -0.732491 -0.157221 -0.489271 4.097796 0.502688 -2.050818 -12.315360 2.546872 0.471050 20.747766 -2.618148 0.000000 0.000000 0.000000 0.000000 0.000000 0.000000 0.439427 0.321512 -48.873761 -0.000000 0.000000 0.000000 -0.000000 0.000000 0.000000 0.000000 0.000000 0.000000 0.439427 0.321512 -48.873761 -0.000000 0.000000 0.000000 -1.948762 1.516651 0.977902 0.000000 0.000000 0.000000
106.848828 89.148998 350.929688 -0.080776 -0.591706 48.965527 0.499369 0.327527 -48.967372 -0.000000 0.000000 0.000000 -0.000000 0.000000 0.000000 0.000000 0.000000 0.000000 -0.000000 0.000000 0.000000 6.744995 2.079758 -0.881657 -24.349113 -1.789511 7.751972 15.168263 23.183904 -8.563664 0.000000 0.000000 0.000000 0.000000 0.000000 0.000000 -0.000000 0.000000 0.000000 -0.855011 3.349543 0.339624 -1.330860 -11.574718 2.121746 -0.955873 19.503287 -1.812215 0.000000 0.000000 0.000000 0.000000 0.000000 0.000000 0.499369 0.327527 -48.967372 -0.000000 0.000000 0.000000 -0.000000 0.000000 0.000000 0.000000 0.000000 0.000000 0.499369 0.327527 -48.967372 -0.000000 0.000000 0.000000 -1.955377 1.669349 0.769124 0.000000 0.000000 0.000000
106.832225 89.146665 350.939998 -0.090024 -0.606221 49.050998 0.516881 0.329309 -49.052960 -0.000000 0.000000 0.000000 -0.000000 0.000000 0.000000 0.000000 0.000000 0.000000 0.778383 0.278660 0.104630 5.548685 1.127092 -0.754210 -24.685014 -2.848447 7.892571 18.084188 24.729376 -9.091993 0.000000 0.000000 0.000000 0.000000 0.000000 0.000000 -0.000000 0.000000 0.000000 -0.817269 3.297582 0.327194 -0.814641 -10.842431 1.778364 -1.526203 16.246579 -1.392520 0.000000 0.000000 0.000000 0.000000 0.000000 0.000000 0.516881 0.329309 -49.052960 -0.000000 0.000000 0.000000 -0.000000 0.000000 0.000000 0.000000 0.000000 0.000000 0.516881 0.329309 -49.052960 -0.000000 0.000000 0.000000 -4.937003 4.295586 1.801169 0.000000 0.000000 0.000000
106.824160 89.139255 350.938154 -0.092368 -0.615250 49.141572 0.525763 0.332625 -49.143594 -0.000000 0.000000 0.000000 -0.000000 0.000000 0.000000 0.000000 0.000000 0.000000 1.091162 2.317027 -0.010206 4.711001 -3.312853 0.185711 -24.438336 -1.337483 8.268323 18.640431 20.427536 -9.131219 0.000000 0.000000 0.000000 0.000000 0.000000 0.000000 -0.000000 0.000000 0.000000 -0.749246 3.294623 0.308141 -0.547410 -11.069987 1.691281 -1.783842 15.686634 -1.251620 0.000000 0.000000 0.000000 0.000000 0.000000 0.000000 0.525763 0.332625 -49.143594 -0.000000 0.000000 0.000000 -0.000000 0.000000 0.000000 0.000000 0.000000 0.000000 0.525763 0.332625 -49.143594 0.652491 0.453374 0.236142 -2.383770 1.079523 0.370583 0.000000 0.000000 0.000000
106.823906 89.131897 350.933126 -0.104252 -0.620163 49.275612 0.538017 0.325592 -49.277704 -0.456816 -0.692773 -0.059164 0.456134 0.693222 0.053643 0.000000 0.000000 0.000000 1.724723 3.743228 -0.006892 4.041252 -4.716790 0.437146 -23.253692 -2.865763 7.699820 18.952049 22.812082 -9.219586 0.000000 0.000000 0.000000 0.000000 0.000000 0.000000 0.456134 0.693222 0.053643 -0.682262 3.171690 0.285120 -0.127666 -11.633034 1.628778 -2.085708 15.636651 -1.115507 0.000000 0.000000 0.000000 0.000000 0.000000 0.000000 0.538017 0.325592 -49.277704 -0.000000 0.000000 0.000000 -0.000000 0.000000 0.000000 0.000000 0.000000 0.000000 0.538017 0.325592 -49.277704 0.879678 0.713422 0.336474 0.246544 -1.759852 -0.673368 0.000000 0.000000 0.000000
106.849696 89.120925 350.917520 -0.084947 -0.612146 49.382016 0.519968 0.334028 -49.383986 -0.500672 -0.714288 -0.063378 0.499921 0.714814 0.057138 0.000000 0.000000 0.000000 1.919261 4.989259 -0.088332 3.261768 -7.348519 0.922180 -20.812260 -3.520484 6.742715 17.816996 27.649384 -8.902697 0.000000 0.000000 0.000000 0.000000 0.000000 0.000000 0.499921 0.714814 0.057138 -0.605421 2.943064 0.255813 0.398600 -11.196342 1.357370 -2.408530 13.014882 -0.812227 0.000000 0.000000 0.000000 0.000000 0.000000 0.000000 0.519968 0.334028 -49.383986 -0.000000 0.000000 0.000000 -0.000000 0.000000 0.000000 0.000000 0.000000 0.000000 0.519968 0.334028 -49.383986 1.121107 0.960906 0.436586 4.109680 -5.860484 -1.898435 0.000000 0.000000 0.000000
106.894116 89.107629 350.894222 -0.051971 -0.596285 49.419948 0.486691 0.348413 -49.421698 -0.528754 -0.724707 -0.065953 0.527962 0.725284 0.059267 0.000000 0.000000 0.000000 2.184671 5.579568 -0.109815 2.762726 -7.970750 0.948525 -20.306086 -6.366246 6.200083 18.720288 32.672523 -9.548177 0.000000 0.000000 0.000000 0.000000 0.000000 0.000000 0.527962 0.725284 0.059267 -0.541647 2.688419 0.229464 0.562648 -11.505390 1.388914 -2.333676 14.103378 -0.861797 0.000000 0.000000 0.000000 0.000000 0.000000 0.000000 0.486691 0.348413 -49.421698 -0.000000 0.000000 0.000000 -0.000000 0.000000 0.000000 0.000000 0.000000 0.000000 -0.079017 0.928834 -49.347065 2.000451 1.306143 0.437296 9.053564 -10.955525 -3.053876 0.000000 0.000000 0.000000
106.953700 89.089911 350.874937 0.000860 -0.587628 49.519582 0.446414 0.382132 -49.521066 -0.530109 -0.725735 -0.066097 0.529314 0.726315 0.059385 0.000000 0.000000 0.000000 2.485030 5.749961 -0.092570 1.942314 -7.860772 0.804343 -19.474057 -8.259990 5.754061 18.527980 36.877411 -9.854829 0.000000 0.000000 0.000000 0.000000 0.000000 0.000000 0.529314 0.726315 0.059385 -0.463354 2.390867 0.197975 0.691989 -11.394708 1.361860 -2.220040 13.255919 -0.864256 0.000000 0.000000 0.000000 0.000000 0.000000 0.000000 0.446414 0.382132 -49.521066 -0.000000 0.000000 0.000000 -0.000000 0.000000 0.000000 0.000000 0.000000 0.000000 -0.306787 0.773906 -49.486996 1.863712 1.829861 0.495625 17.537012 -19.277234 -3.936862 0.000000 0.000000 0.000000
107.030375 89.073453 350.864999 0.077918 -0.595047 49.551898 0.402284 0.445334 -49.553056 -0.520300 -0.719258 -0.065086 0.519524 0.719819 0.058557 0.000000 0.000000 0.000000 2.444469 4.818126 -0.014195 2.063077 -5.414822 0.329119 -19.395910 -10.753687 5.376072 17.758508 39.837116 -9.896056 0.000000 0.000000 0.000000 0.000000 0.000000 0.000000 0.519524 0.719819 0.058557 -0.356582 2.058176 0.158039 0.793129 -11.161168 1.324366 -2.500874 14.223150 -0.738641 0.000000 0.000000 0.000000 0.000000 0.000000 0.000000 0.402284 0.445334 -49.553056 -0.000000 0.000000 0.000000 -0.000000 0.000000 0.000000 0.000000 0.000000 0.000000 -0.468549 0.619956 -49.561363 1.590485 2.192057 0.520021 21.452142 -22.917614 -3.779237 0.000000 0.000000 0.000000
107.113852 89.064374 350.865176 0.165797 -0.624127 49.548942 0.367374 0.531095 -49.549742 -0.497885 -0.743435 -0.064299 0.497093 0.743965 0.057841 0.000000 0.000000 0.000000 2.142909 2.763029 0.131263 3.352501 -0.952494 -0.484537 -20.814263 -13.115467 5.295222 18.146401 41.957639 -10.242368 0.000000 0.000000 0.000000 0.000000 0.000000 0.000000 0.497093 0.743965 0.057841 -0.383391 1.776158 0.155847 1.255887 -10.681550 1.087142 -2.985366 14.810991 -0.441042 0.000000 0.000000 0.000000 0.000000 0.000000 0.000000 0.367374 0.531095 -49.549742 -0.000000 0.000000 0.000000 -0.000000 0.000000 0.000000 0.000000 0.000000 0.000000 0.367374 0.531095 -49.549742 0.547070 1.551357 0.423689 19.986369 -21.128436 -3.559911 0.000000 0.000000 0.000000
